<?xml version="1.0" encoding="UTF-8"?>
<svg width="284px" height="72px" viewBox="0 0 284 72" version="1.1" xmlns="http://www.w3.org/2000/svg" xmlns:xlink="http://www.w3.org/1999/xlink">
    <!-- Generator: Sketch 43.2 (39069) - http://www.bohemiancoding.com/sketch -->
    <title>logo-plain</title>
    <desc>Created with Sketch.</desc>
    <defs></defs>
    <g id="Page-1" stroke="none" stroke-width="1" fill="none" fill-rule="evenodd">
        <g id="logo-plain" fill-rule="nonzero">
            <g id="XMLID_1_" transform="translate(213.000000, 0.000000)">
                <g id="Group">
                    <polygon id="Shape" fill="#FFFFFF" points="33.7 24.9 33.7 50.3 26.5 50.3 18.6 35 18.6 50.3 12.5 50.3 12.5 24.9 20.2 24.9 27.6 39.9 27.6 24.9"></polygon>
                    <polygon id="Shape" fill="#FFFFFF" points="58.4 44.6 58.4 50.3 37.2 50.3 37.2 45.1 50.4 30.5 37.5 30.5 37.5 24.9 58.4 24.9 58.4 30.2 45.6 44.6"></polygon>
                    <path d="M35.4,0.2 C54.7,0.2 70.4,16 70.4,35.5 C70.4,55 54.7,70.8 35.4,70.8 C16.1,70.8 0.4,55 0.4,35.5 C0.4,16 16.1,0.2 35.4,0.2 Z M58.4,50.3 L58.4,44.7 L45.6,44.7 L58.4,30.3 L58.4,24.9 L37.6,24.9 L37.6,30.5 L50.4,30.5 L37.3,45.1 L37.3,50.2 L58.4,50.2 L58.4,50.3 Z M33.7,50.3 L33.7,24.9 L27.6,24.9 L27.6,39.9 L20.2,24.9 L12.5,24.9 L12.5,50.3 L18.6,50.3 L18.6,35 L26.5,50.3 L33.7,50.3 Z" id="Shape" fill="#EC6608"></path>
                </g>
            </g>
            <g id="Group" fill="#000000">
                <path d="M203.2,30.7 C197.9,25.8 191,24 185.2,24 C174.5,24 167.9,30.6 167.9,37.9 C167.9,43.8 171,48.7 178.2,51 L185.8,53.3 C189.4,54.4 190.9,55.4 190.9,57.6 C190.9,59.4 189.1,60.9 186,60.9 C181.8,60.9 176.1,58.3 172.9,55.3 L166.2,64.1 C169.9,67.3 176,71.2 185.9,71.2 C198.1,71.2 203.6,63.5 203.6,57 C203.6,51.1 200.5,46.1 191.3,43.1 L183.9,40.7 C181.6,39.9 180.6,38.8 180.6,37.3 C180.6,35.9 181.8,34.3 185.1,34.3 C188,34.3 192.5,35.4 196.1,38.9 L203.2,30.7 Z M138.6,8.1 L138.6,25.2 L131.6,25.2 L131.6,36 L138.6,36 L138.6,60.6 C138.6,69.6 145.1,70.7 151.4,70.7 C155.1,70.7 161.2,70.1 161.2,70.1 L161.2,59.3 C161.2,59.3 158.6,59.6 155.4,59.6 C153.5,59.6 151.2,59.2 151.2,56.4 L151.2,36 L160.8,36 L160.8,25.2 L151.2,25.2 L151.2,8.1 L138.6,8.1 Z M57.7,8.1 L57.7,25.2 L50.7,25.2 L50.7,36 L57.7,36 L57.7,60.6 C57.7,69.6 64.2,70.7 70.5,70.7 C74.2,70.7 80.3,70.1 80.3,70.1 L80.3,59.3 C80.3,59.3 77.7,59.6 74.5,59.6 C72.6,59.6 70.3,59.2 70.3,56.4 L70.3,36 L80,36 L80,25.2 L70.4,25.2 L70.4,8.1 L57.7,8.1 Z M48.6,9.9 C42.1,4.2 34,0.3 26.1,0.3 C14.1,0.3 3.4,7.5 3.4,19.6 C3.4,28.2 9.1,34.5 18.3,38.8 L23.1,41.1 C29.6,44.1 33.8,46.8 33.8,51.5 C33.8,55.7 30.2,59 24.4,59 C19.2,59 12.8,56.1 7.8,50.9 L0.2,61 C6.6,67.3 14.3,71.3 24.6,71.3 C39.6,71.3 48.2,61.3 48.2,51 C48.2,40.7 41.7,35 30.9,29.9 L25.3,27.3 C19.9,24.7 17.9,22.3 17.9,19.2 C17.9,15.1 22,12.7 26.5,12.7 C31.3,12.7 36.7,15.6 40.9,19.8 L48.6,9.9 Z" id="Shape"></path>
                <path d="M112.7,50.8 L112.7,51.7 L112.7,51.7 L112.7,54.2 C112.6,59.7 108.6,62 104,62 C100.1,62 97.7,59.7 97.7,56.7 C97.7,53.6 100,51.8 104,51.8 L108.8,51.8 C110.6,51.8 111.9,51.6 112.7,50.8 M131.6,70.7 L131.6,60 C131.6,60 131.9,60.1 128.8,60.1 C126.9,60.1 125.4,59.7 125.4,57 L125.4,40.6 C125.4,28.7 116.2,24 106,24 C95.2,24 86.9,29.5 86.9,29.5 L91.9,39.1 C95.2,37.1 100.9,34.9 105.3,34.9 C110.2,34.9 112.7,37 112.7,40.2 L112.7,40.7 C112.7,42.4 111.7,43.3 109.6,43.3 L100.8,43.3 C90.9,43.3 84.6,48.6 84.6,57.1 C84.6,64.5 90.7,71.2 100.2,71.2 C105.3,71.2 110.3,69.3 112.6,65.8 L113.1,65 C114.8,70.4 120.1,71.2 125.4,71.2 C129.2,71.3 131.6,70.7 131.6,70.7" id="Shape"></path>
            </g>
        </g>
    </g>
</svg>